<svg width="124" height="87" viewBox="0 0 124 87" fill="none" xmlns="http://www.w3.org/2000/svg">
<path d="M79.5 48.5C81.5 31.7 74.5 21 70.5 18C70.5 18 76.095 16.7005 80 16.5C83.5 16.3203 86.5 16 90 17C93.5 18 97 22.5 99 35C110 32.5 118 32 121.5 34.5C118 40 100 48.5 79.5 48.5Z" fill="#55ACEE"/>
<path fill-rule="evenodd" clip-rule="evenodd" d="M72 65.5C73.5 63.8333 76.8 59.5 78 55.5C100.557 46.0262 102.354 54.0552 103.959 61.224C104.133 62.0006 104.305 62.767 104.5 63.5C100.167 67.3333 88.8 73 78 65L72 65.5ZM81.5 61L96.5 56.5C97.3333 58.8333 97.4 63.8 91 65C84.6 66.2 82 62.8333 81.5 61Z" fill="#55ACEE"/>
<path d="M42 8.875C23.1551 8.875 7.875 24.1551 7.875 43C7.875 61.8449 23.1551 77.125 42 77.125C60.8449 77.125 76.125 61.8449 76.125 43C76.125 24.1551 60.8449 8.875 42 8.875ZM58.3998 34.5982C58.4227 34.9563 58.4227 35.3295 58.4227 35.6951C58.4227 46.8771 49.9066 59.7578 34.3447 59.7578C29.5459 59.7578 25.0975 58.3639 21.3498 55.9645C22.0354 56.0406 22.6904 56.0711 23.3912 56.0711C27.3521 56.0711 30.9932 54.7305 33.8953 52.4605C30.1781 52.3844 27.0551 49.9469 25.9887 46.5953C27.2912 46.7857 28.4643 46.7857 29.8049 46.443C27.8909 46.0541 26.1705 45.0146 24.9361 43.5011C23.7017 41.9875 23.0293 40.0933 23.0332 38.1402V38.0336C24.1529 38.6658 25.4707 39.0543 26.8494 39.1076C25.6904 38.3352 24.7399 37.2887 24.0822 36.061C23.4245 34.8332 23.0798 33.4622 23.0789 32.0693C23.0789 30.4926 23.4902 29.0529 24.2291 27.8037C26.3536 30.419 29.0046 32.5579 32.0098 34.0815C35.015 35.6052 38.3072 36.4793 41.6725 36.6473C40.4766 30.8963 44.7727 26.2422 49.9371 26.2422C52.3746 26.2422 54.5684 27.2629 56.1146 28.9082C58.0266 28.5502 59.8547 27.8342 61.4848 26.8744C60.8525 28.832 59.5271 30.485 57.7676 31.5285C59.4738 31.3457 61.1191 30.8734 62.6426 30.2107C61.4924 31.9018 60.0527 33.4023 58.3998 34.5982V34.5982Z" fill="#55ACEE"/>
</svg>
